<?xml version="1.0" encoding="UTF-8" standalone="no"?>
<svg width="40px" height="39px" viewBox="0 0 40 39" version="1.1" xmlns="http://www.w3.org/2000/svg" xmlns:xlink="http://www.w3.org/1999/xlink">
    <!-- Generator: Sketch 45.2 (43514) - http://www.bohemiancoding.com/sketch -->
    <title>Page 1</title>
    <desc>Created with Sketch.</desc>
    <defs></defs>
    <g id="Page-1" stroke="none" stroke-width="1" fill="none" fill-rule="evenodd">
        <g id="iwrite智能批阅-教师-copy" transform="translate(-410.000000, -852.000000)" fill="#299EFD">
            <g id="Group-3" transform="translate(410.000000, 852.000000)">
                <g id="Group-2">
                    <g id="Page-1">
                        <path d="M31.7529167,37.5000833 C31.5970833,37.5000833 31.4154167,37.4400833 31.2095833,37.32175 L19.9995833,31.4009167 L8.81875,37.3059167 C8.52375,37.4675833 8.34625,37.5000833 8.24708333,37.5000833 C8.18041667,37.5000833 8.15625,37.48925 8.15541667,37.48925 C8.13958333,37.46175 8.06875,37.3634167 8.06958333,37.1275833 C8.06958333,37.0525833 8.08541667,36.9300833 8.10958333,36.75925 L10.24625,24.2759167 L1.18291667,15.41925 C0.837083333,15.0434167 0.832916667,14.8575833 0.832916667,14.8559167 C0.832916667,14.6800833 1.37041667,14.5850833 1.47791667,14.5675833 L13.9679167,12.7434167 L19.5704167,1.35925 C19.6920833,1.09508333 19.86125,0.833416667 19.9995833,0.833416667 C20.1379167,0.833416667 20.30875,1.09508333 20.42125,1.34008333 L26.0329167,12.7434167 L38.53375,14.5700833 C38.6245833,14.58425 39.11375,14.6709167 39.1629167,14.8300833 L39.1629167,14.8559167 C39.1629167,14.9259167 39.0820833,15.12425 38.78125,15.4275833 L29.75125,24.27675 L31.8929167,36.78425 C31.9004167,36.8425833 31.9045833,36.9659167 31.9045833,37.1259167 C31.9045833,37.3634167 31.8329167,37.4625833 31.80875,37.4950833 L31.7529167,37.5000833 Z" id="Fill-1"></path>
                        <path d="M20,8.33333333e-05 C19.5191667,8.33333333e-05 19.1266667,0.330083333 18.8225,0.990916667 L13.4141667,11.98175 L1.34583333,13.7450833 C0.449166667,13.88925 0,14.2600833 0,14.8559167 C0,15.19425 0.2,15.58175 0.600833333,16.0150833 L9.35166667,24.5659167 L7.28416667,36.6434167 C7.2525,36.8684167 7.23666667,37.02925 7.23666667,37.1259167 C7.23583333,37.4634167 7.31916667,37.74925 7.48833333,37.9825833 C7.65833333,38.21675 7.91083333,38.3334167 8.24666667,38.3334167 C8.53416667,38.3334167 8.85416667,38.23675 9.2075,38.0425833 L20,32.3434167 L30.7925,38.0425833 C31.1283333,38.23675 31.4483333,38.3334167 31.7533333,38.3334167 C32.0733333,38.3334167 32.3175,38.21675 32.485,37.9825833 C32.6541667,37.74925 32.7375,37.4634167 32.7375,37.1259167 C32.7375,36.91675 32.7291667,36.7550833 32.7141667,36.6434167 L30.6458333,24.5659167 L39.3708333,16.0150833 C39.7875,15.59675 39.9958333,15.2100833 39.9958333,14.8559167 L40,14.8559167 C40,14.2600833 39.5516667,13.88925 38.6541667,13.7450833 L26.5866667,11.98175 L21.1775,0.990916667 C20.8741667,0.330083333 20.4808333,8.33333333e-05 20,8.33333333e-05 M20,2.37258333 L25.0908333,12.7175833 L25.4783333,13.50425 L26.345,13.6309167 L37.7258333,15.29425 L29.48,23.3759167 L28.8566667,23.98675 L29.0041667,24.8475833 L30.955,36.24425 L20.7783333,30.86925 L20,30.4575833 L19.2216667,30.86925 L9.04333333,36.2450833 L10.9941667,24.8475833 L11.1416667,23.9850833 L10.5166667,23.37425 L2.25083333,15.2975833 L13.655,13.6309167 L14.5225,13.50425 L14.91,12.7175833 L20,2.37258333" id="Fill-3"></path>
                    </g>
                </g>
            </g>
        </g>
    </g>
</svg>