<?xml version="1.0" encoding="utf-8"?>
<!-- Generator: Adobe Illustrator 21.0.0, SVG Export Plug-In . SVG Version: 6.00 Build 0)  -->
<svg version="1.1" id="图层_1" xmlns="http://www.w3.org/2000/svg" xmlns:xlink="http://www.w3.org/1999/xlink" x="0px" y="0px"
	 viewBox="0 0 24 23" style="enable-background:new 0 0 24 23;" xml:space="preserve">
<style type="text/css">
	.st0{fill:#F8F8F8;}
	.st1{fill:#E5E5E5;}
	.st2{fill:none;}
	.st3{fill:#299EFD;}
</style>
<g>
	<path id="Fill-1_1_" class="st0" d="M19.1,22.5c-0.1,0-0.2,0-0.3-0.1L12,18.8l-6.7,3.5C5.1,22.4,5,22.4,5,22.4H4.9
		c0,0-0.1-0.1-0.1-0.2c0,0,0-0.1,0-0.2l1.3-7.5L0.7,9.3C0.5,9,0.5,8.9,0.5,8.9c0-0.1,0.3-0.2,0.4-0.2l7.5-1.1l3.4-6.8
		c0.1-0.2,0.2-0.3,0.3-0.3s0.2,0.2,0.3,0.3l3.4,6.8l7.5,1.1c0.1,0,0.3,0.1,0.4,0.2l0,0c0,0,0,0.2-0.2,0.3l-5.4,5.3l1.3,7.5
		c0,0,0,0.1,0,0.2C19.1,22.4,19.1,22.5,19.1,22.5L19.1,22.5z"/>
	<path id="Fill-3_2_" class="st1" d="M12,0c-0.3,0-0.5,0.2-0.7,0.6L8,7.2l-7.2,1C0.3,8.3,0,8.6,0,8.9c0,0.2,0.1,0.4,0.4,0.7l5.3,5.1
		L4.4,22c0,0.1,0,0.2,0,0.3c0,0.2,0,0.4,0.2,0.5c0,0.1,0.1,0.2,0.3,0.2c0.2,0,0.4-0.1,0.6-0.2l6.5-3.4l6.5,3.4
		c0.2,0.1,0.4,0.2,0.6,0.2s0.3-0.1,0.4-0.2s0.2-0.3,0.2-0.5c0-0.1,0-0.2,0-0.3l-1.2-7.2l5.2-5.1C23.9,9.4,24,9.1,24,8.9l0,0
		c0-0.4-0.3-0.6-0.8-0.7l-7.2-1l-3.2-6.6C12.5,0.2,12.3,0,12,0 M12,1.4l3.1,6.2l0.2,0.5l0.5,0.1l6.8,1L17.7,14l-0.4,0.4l0.1,0.5
		l1.2,6.8l-6.1-3.2L12,18.3l-0.5,0.2l-6.1,3.2l1.2-6.8l0.1-0.5L6.3,14l-5-4.8l6.8-1l0.5-0.1l0.2-0.5L12,1.4"/>
</g>
<path class="st2" d="M-41.5,9.1v32.9H-20V38v-4.8l-6.5,3.4c-0.2,0.1-0.4,0.2-0.6,0.2c-0.2,0-0.3-0.1-0.3-0.2
	c-0.2-0.1-0.2-0.3-0.2-0.5c0-0.1,0-0.2,0-0.3l1.3-7.3l-5.3-5.1c-0.3-0.3-0.4-0.5-0.4-0.7c0-0.3,0.3-0.6,0.8-0.7l7.2-1l3.3-6.6
	c0.2-0.4,0.4-0.6,0.7-0.6v-2.7v-2H-41.5z"/>
<path class="st3" d="M11.3,0.6L8,7.2l-7.2,1C0.3,8.3,0,8.6,0,8.9c0,0.2,0.1,0.4,0.4,0.7l5.3,5.1L4.4,22c0,0.1,0,0.2,0,0.3
	c0,0.2,0,0.4,0.2,0.5c0,0.1,0.1,0.2,0.3,0.2c0.2,0,0.4-0.1,0.6-0.2l6.5-3.4V0C11.7,0,11.5,0.2,11.3,0.6z"/>
</svg>
